<svg xmlns="http://www.w3.org/2000/svg" version="1.1" xmlns:xlink="http://www.w3.org/1999/xlink" xmlns:svgjs="http://svgjs.dev/svgjs" width="2000" height="2250" viewBox="0 0 2000 2250"><g transform="matrix(1,0,0,1,0,0)"><svg viewBox="0 0 320 360" data-background-color="#ffffff" preserveAspectRatio="xMidYMid meet" height="2250" width="2000" xmlns="http://www.w3.org/2000/svg" xmlns:xlink="http://www.w3.org/1999/xlink"><g id="tight-bounds" transform="matrix(1,0,0,1,0,0)"><svg viewBox="0 0 320 360" height="360" width="320"><g><svg></svg></g><g><svg viewBox="0 0 320 360" height="360" width="320"><g><path d="M219.58 41.008c0.707 0 6.365 2.829 9.547 3.89-1.061 0.354-3.536-0.707-6.365-1.768 0.707 0 2.122 0.354 3.536 1.06-0.707-0.707-6.011-2.475-6.718-3.182M166.895 30.047c1.061-0.354 13.436 1.414 19.094 1.768 0.354-0.354-0.707-0.354-2.122-0.707 1.768-0.354 5.304 0.707 7.779 1.06-7.425 0.354-15.558-1.768-22.629-1.06-2.475 0-0.707-0.707-2.122-1.061M156.641 30.047c6.365 0 11.315 0 2.121 0.707-1.061-0.354-2.475-0.354-2.121-0.707M256.707 59.395c0.707 0 3.536 3.182 4.95 4.243-0.354 0.354-3.182-2.475-4.596-3.536 0.354 0.354 0 0-0.354-0.707M249.635 54.798c-2.829-2.475-3.889-2.475-4.243-3.889 2.475 1.414 4.243 2.829 4.243 3.889M204.022 32.522c0.354-0.354 1.061 0.354 2.829 0.707-2.122-0.354-1.768 0-1.061 0.707-2.475-0.354-3.182-0.707-2.475-1.414 1.414 0.707 1.768 0.354 0.707 0M103.602 36.765c0-0.354 1.414-1.061 2.475-1.414-1.061 0.707-0.707 1.061 1.061 0.353 0 0.354-2.122 1.061-3.536 1.768 0.707-0.354 1.414-1.414 0-0.707M211.094 28.986c-1.061 0.354-4.95-1.768-8.84-2.475-2.122-0.707 8.486 1.768 8.84 2.475M2.475 203.66c2.122 8.84 0.707 8.486 0 0M2.829 150.621c0.354-1.414 0.707-5.304 1.06-4.95-1.061 8.486-2.829 12.376-3.182 18.74 1.061-5.657-0.354 3.182-0.707 5.304 0.354 2.829 0.354-1.768 1.061-1.06 0.707 1.061-1.414 15.912-0.707 7.779-0.707 7.425 0 15.558 1.414 17.679-1.768 11.315 7.072 36.773 8.84 42.077 0.354 0.354 0-1.768 0.707-0.353 0.707 4.597 3.889 7.779 4.95 12.729 1.061 1.414 5.304 9.193 6.011 10.962 1.414 2.829 2.122 2.475 3.536 5.303 4.243 8.133 10.961 15.912 17.326 23.337 20.508 24.044 51.978 43.845 86.984 50.918 35.006 7.425 71.779 2.122 100.419-11.669 1.768-1.061 1.414-1.414 3.536-2.122 9.901-3.182 21.923-13.436 28.641-17.326 3.182-3.536 11.669-9.547 12.73-13.082 6.011-4.95 12.022-13.083 15.204-18.387 1.768-2.829 3.182-2.829 3.889-4.597-0.354 0 5.657-7.425 7.426-11.668-0.707 0-1.768 2.122-1.768 0 12.729-24.398 19.801-57.282 15.911-79.912 0.707 27.934-6.365 59.05-19.801 78.851-6.011 12.729-18.387 26.519-29.701 36.42-1.768 1.768-3.536 3.889-5.658 5.304-6.718 5.657-14.144 10.254-21.922 14.497-18.387 10.254-38.895 19.094-62.94 19.447 41.37-3.536 78.497-24.398 99.006-49.856-15.558 15.204-22.276 21.215-39.602 30.055-1.414 2.475-13.083 7.425-20.862 9.547 4.597-2.122 14.144-5.657 17.326-8.486-25.812 12.376-54.453 19.448-81.326 15.558 10.254 0 24.751 0.354 38.541-2.121 2.122-0.707 3.182-1.414 5.658-1.768 26.873-6.011 52.685-19.094 71.072-37.481-10.608 9.547-26.519 20.862-36.774 24.398 9.547-5.304 26.873-15.558 32.53-23.337-11.315 11.315-32.53 22.63-45.966 27.58-2.122 0.354 1.414-1.414-2.122 0-4.243 1.061-2.475 1.061-3.536 1.768-16.265 4.597-35.006 8.486-50.563 7.072-2.829-0.354-3.889-1.061-6.365-1.061-2.829-0.354-5.304-0.354-8.486-0.354-12.376-1.414-25.812-6.365-35.713-10.607-5.304-2.475-10.608-4.243-15.912-7.426-4.243-2.475-7.779-5.304-11.314-8.132-13.436-9.901-24.751-19.801-35.36-33.945-19.094-26.519-28.994-59.757-27.58-92.641 1.414-32.884 14.497-65.061 35.359-88.752-1.061 1.061 1.414-2.475 3.536-4.596 0 0.707-0.354 1.768 2.122-0.707 2.122-2.475-0.707-0.707 0.353-2.122 21.923-24.044 60.111-43.492 99.36-44.199 1.414-1.061 3.889-2.475 6.718-1.768 0 0.354-1.768 0.354-1.768 0.354 3.889-0.354 7.425-0.354 9.193 0.353 0.354-0.354-1.414-0.707 0-0.707 2.475 0.707 3.182 0 4.597 0.707-1.061 0-2.122 0-2.829 0.354 8.84 0 14.497 2.122 23.337 2.829-4.597-1.061-5.657-1.061-9.193-2.122 3.889 0.707 5.657 1.414 7.425 1.061-0.707 0-0.354-1.061 0.354-0.707 7.072 1.768 7.779 2.475 15.204 4.95 0.707-0.707-3.182-1.061-4.243-2.122 7.072 2.475 13.436 4.243 17.68 7.072-1.414-1.061-5.657-2.475-8.84-3.889-0.354 0.354 1.061 0.707 1.414 1.414-3.536-1.768-8.486-3.536-13.436-4.243 4.243 1.061 7.072 2.475 8.84 3.182-3.889-0.707-8.84-3.182-14.498-4.243 9.193 2.829 26.519 9.193 37.127 14.851-3.889-2.475-8.486-4.243-10.961-5.657 2.122 0.354 4.597 1.768 4.597 1.06 2.475 1.061 5.657 3.536 7.425 3.89-3.182-2.122-9.547-5.304-11.668-6.365 26.519 12.022 50.21 32.177 65.414 57.989 1.414 2.475 3.536 8.133 5.304 8.84-0.354-1.768-1.768-2.829-3.182-5.657 0.707 0 0.707-1.061 0-2.122-1.414-1.768 0 1.414-1.415-0.354-6.365-11.669-14.144-21.923-26.165-33.237 6.718 6.365 1.768 1.768 0.353-0.354 9.193 8.133 19.801 21.923 24.398 28.995-0.707-1.061-1.061-1.768-0.707-1.768 8.486 14.497 13.79 27.58 19.094 46.32 0.354 0.354 0-1.414 0.707-0.353 3.536 14.851 4.597 27.227 4.243 38.541 2.829-19.094-3.536-48.796-14.851-72.133-1.414-2.829-1.414-0.707-2.829-3.889 0-1.061-1.061-3.182-1.768-4.597-14.144-23.337-31.47-39.956-51.978-53.038 1.414 0.707 4.243 2.829 4.244 2.475-38.188-25.105-82.387-28.641-118.807-20.862-2.475 1.061-3.536 2.122-6.365 3.536 5.304-1.768 8.486-2.122 13.437-3.183 1.061-1.061-4.597 0.354-2.122-0.707 0.354 0.354 4.95-0.707 6.011-0.353 0 0.354-1.414 0.707-1.768 1.06 11.669-2.475 23.691-2.829 33.945-2.121-6.011 0.354-16.972-0.707-20.508 1.061 3.536-0.354 8.486-0.707 11.668-0.354-4.243 0-12.022 0.354-15.558 0.707-0.354-0.354 5.657-1.061 1.768-1.06-1.768 0.354-4.597 0.354-5.657 1.414-30.409 2.829-60.111 18.74-80.973 37.481-4.243 3.536-9.193 7.425-12.375 11.314-7.779 8.84-12.729 17.68-18.387 25.459 3.536-7.425 11.315-18.74 20.508-28.287 9.193-9.547 19.094-17.68 24.398-21.923 0 1.414 8.486-5.304 11.669-7.425-2.122 1.768 1.414-0.707 2.121-0.354 11.315-6.718 20.508-9.193 30.763-13.083-2.475 0.707-4.597 1.414-4.951 1.061 2.475-0.707 3.889-1.414 3.536-1.768-9.901 2.829-25.459 9.547-37.834 16.972 22.276-15.204 50.564-24.398 78.497-24.751 27.934-0.707 55.16 6.365 76.729 17.68 14.497 6.365 28.287 18.033 39.249 29.348 3.182 2.829 0.707-0.707 5.304 4.243-1.414-0.707-2.475-1.414-0.707 0.707 2.829 3.182-0.707-2.475 3.889 3.182-0.354 0-1.768-1.768-1.768-1.061 12.376 10.961 21.923 30.762 27.58 43.846-1.414-5.304-4.95-12.729-7.779-18.033 8.486 15.558 11.315 24.751 14.851 38.541 1.414 1.061-0.707-4.95 0.707-2.121 0.354 2.122 0.707 8.84 2.122 9.9-1.061-6.718-2.829-14.851-4.243-16.265 1.061 0.707-1.768-8.133-3.536-10.254-0.707-5.657-5.657-15.558-9.901-22.984-15.204-29.702-42.431-54.099-72.839-67.536 0-0.707-1.768-1.414-2.476-2.121-30.055-12.729-66.122-16.265-100.773-8.133-35.006 8.486-67.889 28.641-91.227 57.636 1.061-3.536 9.901-10.254 10.255-13.083-10.254 10.961-21.215 25.459-28.641 41.016-7.779 15.558-12.022 31.47-13.79 43.138" fill="#010c80" fill-rule="nonzero" stroke="none" stroke-width="1" stroke-linecap="butt" stroke-linejoin="miter" stroke-miterlimit="10" stroke-dasharray="" stroke-dashoffset="0" font-family="none" font-weight="none" font-size="none" text-anchor="none" style="mix-blend-mode: normal" data-fill-palette-color="tertiary"></path></g><g transform="matrix(1,0,0,1,48,125.20900239385519)"><svg viewBox="0 0 224 109.58199521228963" height="109.58199521228963" width="224"><g><svg viewBox="0 0 224 109.58199521228963" height="109.58199521228963" width="224"><g><svg viewBox="0 0 224 109.58199521228963" height="109.58199521228963" width="224"><g><svg viewBox="0 0 224 109.58199521228963" height="109.58199521228963" width="224"><g id="textblocktransform"><svg viewBox="0 0 224 109.58199521228963" height="109.58199521228963" width="224" id="textblock"><g><svg viewBox="0 0 224 81.00185253797703" height="81.00185253797703" width="224"><g transform="matrix(1,0,0,1,0,0)"><svg width="224" viewBox="2.27 -37.5 131.78 47.66" height="81.00185253797703" data-palette-color="#010c80"><path d="M14.38 0.49L14.38 0.49Q9.01 0.49 5.64-3.04 2.27-6.57 2.27-12.48L2.27-12.48 2.27-13.31Q2.27-17.24 3.77-20.32 5.27-23.41 7.97-25.16 10.67-26.9 13.82-26.9L13.82-26.9Q18.97-26.9 21.83-23.51 24.68-20.12 24.68-13.79L24.68-13.79 24.68-11.91 6.79-11.91Q6.88-8.01 9.07-5.6 11.25-3.2 14.62-3.2L14.62-3.2Q17.02-3.2 18.68-4.17 20.34-5.15 21.58-6.76L21.58-6.76 24.34-4.61Q21.02 0.49 14.38 0.49ZM13.82-23.19L13.82-23.19Q11.08-23.19 9.23-21.2 7.37-19.21 6.93-15.63L6.93-15.63 20.17-15.63 20.17-15.97Q19.97-19.41 18.31-21.3 16.65-23.19 13.82-23.19ZM45.29-7.01L45.29-7.01Q45.29-8.84 43.91-9.85 42.53-10.86 39.1-11.6 35.67-12.33 33.65-13.35 31.64-14.38 30.67-15.8 29.71-17.21 29.71-19.17L29.71-19.17Q29.71-22.41 32.46-24.66 35.2-26.9 39.48-26.9L39.48-26.9Q43.97-26.9 46.76-24.58 49.56-22.27 49.56-18.65L49.56-18.65 45.02-18.65Q45.02-20.51 43.44-21.85 41.87-23.19 39.48-23.19L39.48-23.19Q37.01-23.19 35.62-22.12 34.23-21.04 34.23-19.31L34.23-19.31Q34.23-17.68 35.52-16.85 36.81-16.02 40.2-15.26 43.58-14.5 45.68-13.45 47.78-12.4 48.79-10.93 49.8-9.45 49.8-7.32L49.8-7.32Q49.8-3.78 46.97-1.65 44.14 0.49 39.62 0.49L39.62 0.49Q36.45 0.49 34.01-0.63 31.56-1.76 30.19-3.77 28.81-5.79 28.81-8.13L28.81-8.13 33.32-8.13Q33.44-5.86 35.14-4.53 36.84-3.2 39.62-3.2L39.62-3.2Q42.19-3.2 43.74-4.24 45.29-5.27 45.29-7.01ZM60.2-37.5L60.2-23.22Q63.2-26.9 68.01-26.9L68.01-26.9Q76.39-26.9 76.46-17.46L76.46-17.46 76.46 0 71.94 0 71.94-17.48Q71.92-20.34 70.64-21.7 69.36-23.07 66.65-23.07L66.65-23.07Q64.45-23.07 62.79-21.9 61.13-20.73 60.2-18.82L60.2-18.82 60.2 0 55.68 0 55.68-37.5 60.2-37.5ZM82.02-13.13L82.02-13.45Q82.02-17.33 83.55-20.43 85.08-23.54 87.8-25.22 90.52-26.9 94.01-26.9L94.01-26.9Q99.41-26.9 102.74-23.17 106.07-19.43 106.07-13.23L106.07-13.23 106.07-12.92Q106.07-9.06 104.59-5.99 103.12-2.93 100.37-1.22 97.62 0.49 94.06 0.49L94.06 0.49Q88.69 0.49 85.36-3.25 82.02-6.98 82.02-13.13L82.02-13.13ZM86.56-12.92L86.56-12.92Q86.56-8.52 88.6-5.86 90.64-3.2 94.06-3.2L94.06-3.2Q97.5-3.2 99.53-5.9 101.56-8.59 101.56-13.45L101.56-13.45Q101.56-17.8 99.49-20.5 97.43-23.19 94.01-23.19L94.01-23.19Q90.67-23.19 88.62-20.53 86.56-17.87 86.56-12.92ZM134.05-13.33L134.05-12.92Q134.05-6.88 131.29-3.2 128.53 0.49 123.82 0.49L123.82 0.49Q119.01 0.49 116.25-2.56L116.25-2.56 116.25 10.16 111.73 10.16 111.73-26.42 115.86-26.42 116.08-23.49Q118.84-26.9 123.74-26.9L123.74-26.9Q128.51-26.9 131.28-23.32 134.05-19.73 134.05-13.33L134.05-13.33ZM129.53-13.43L129.53-13.43Q129.53-17.9 127.63-20.48 125.72-23.07 122.4-23.07L122.4-23.07Q118.3-23.07 116.25-19.43L116.25-19.43 116.25-6.81Q118.28-3.2 122.45-3.2L122.45-3.2Q125.7-3.2 127.61-5.77 129.53-8.35 129.53-13.43Z" opacity="1" transform="matrix(1,0,0,1,0,0)" fill="#010c80" class="wordmark-text-0" data-fill-palette-color="primary" id="text-0"></path></svg></g></svg></g><g transform="matrix(1,0,0,1,0,100.1244458777325)"><svg viewBox="0 0 224 9.457549334557136" height="9.457549334557136" width="224"><g transform="matrix(1,0,0,1,0,0)"><svg width="224" viewBox="3.5 -36 1089.41 46" height="9.457549334557136" data-palette-color="#77d4fc"><path d="M21.5-2.5L21.5-2.5Q23.95-2.5 25.93-3.18 27.9-3.85 29.3-5.28 30.7-6.7 31.48-8.93 32.25-11.15 32.25-14.25L32.25-14.25 32.25-35 39.5-35 39.5-14.25Q39.5-6.55 34.8-2.78 30.1 1 21.5 1L21.5 1Q12.85 1 8.18-2.78 3.5-6.55 3.5-14.25L3.5-14.25 3.5-35 10.75-35 10.75-14.25Q10.75-11.15 11.53-8.93 12.3-6.7 13.7-5.28 15.1-3.85 17.07-3.18 19.05-2.5 21.5-2.5ZM74-15.75L74 0 67 0 67-15.75Q67-19.35 65.2-20.93 63.4-22.5 60-22.5L60-22.5 53.5-22.5 53.5 0 46.5 0 46.5-26 60-26Q67.15-26 70.57-23.43 74-20.85 74-15.75L74-15.75ZM87.75-35L87.75 0 80.75 0 80.75-35 87.75-35ZM109.74-2.5L109.74-2.5Q112.19-2.5 114.32-3.35 116.44-4.2 118.49-5.75L118.49-5.75 120.49-2.75Q119.54-1.9 118.27-1.2 116.99-0.5 115.52-0.03 114.04 0.45 112.44 0.73 110.84 1 109.24 1L109.24 1Q105.69 1 102.77 0.08 99.84-0.85 97.79-2.63 95.74-4.4 94.62-7 93.49-9.6 93.49-13L93.49-13Q93.49-16.35 94.57-18.98 95.64-21.6 97.57-23.38 99.49-25.15 102.14-26.08 104.79-27 107.99-27L107.99-27Q110.99-27 113.64-26.1 116.29-25.2 118.24-23.48 120.19-21.75 121.34-19.3 122.49-16.85 122.49-13.75L122.49-13.75 122.49-10.25 101.14-10.25Q101.74-6.1 104.02-4.3 106.29-2.5 109.74-2.5ZM107.99-23.75L107.99-23.75Q106.54-23.75 105.29-23.2 104.04-22.65 103.12-21.45 102.19-20.25 101.62-18.35 101.04-16.45 100.99-13.75L100.99-13.75 114.99-13.75Q114.99-16.35 114.39-18.25 113.79-20.15 112.82-21.38 111.84-22.6 110.57-23.18 109.29-23.75 107.99-23.75ZM133.99-8.25L133.99-8.25Q133.99-3.5 139.74-3.5L139.74-3.5 146.74-3.5 146.74-13 139.74-13Q133.99-13 133.99-8.25ZM139.74-16.5L146.74-16.5Q146.74-20.1 144.87-21.8 142.99-23.5 139.99-23.5L139.99-23.5Q137.74-23.5 135.59-22.83 133.44-22.15 131.74-21L131.74-21 129.99-24Q131.09-24.75 132.42-25.3 133.74-25.85 135.14-26.23 136.54-26.6 137.92-26.8 139.29-27 140.49-27L140.49-27Q143.69-27 146.14-26.25 148.59-25.5 150.29-24.1 151.99-22.7 152.87-20.78 153.74-18.85 153.74-16.5L153.74-16.5 153.74 0 139.74 0Q132.94 0 129.72-2.05 126.49-4.1 126.49-8.25L126.49-8.25Q126.49-12.4 129.72-14.45 132.94-16.5 139.74-16.5L139.74-16.5ZM166.49-20.5L166.49-20.5Q166.49-19.35 167.51-18.4 168.54-17.45 170.99-16.75L170.99-16.75 178.74-14.5Q182.34-13.45 184.29-11.65 186.24-9.85 186.24-7L186.24-7Q186.24-5.2 185.49-3.73 184.74-2.25 183.04-1.2 181.34-0.15 178.64 0.43 175.94 1 171.99 1L171.99 1Q169.94 1 167.96 0.7 165.99 0.4 164.21-0.13 162.44-0.65 160.99-1.33 159.54-2 158.49-2.75L158.49-2.75 160.49-5.75Q162.59-4.45 165.41-3.48 168.24-2.5 171.99-2.5L171.99-2.5Q175.74-2.5 177.24-3.5 178.74-4.5 178.74-6L178.74-6Q178.74-7.15 177.69-8.08 176.64-9 173.99-9.75L173.99-9.75 166.24-12Q163.04-12.95 161.01-14.73 158.99-16.5 158.99-19.5L158.99-19.5Q158.99-21.1 159.71-22.48 160.44-23.85 161.99-24.85 163.54-25.85 165.94-26.43 168.34-27 171.74-27L171.74-27Q175.89-27 179.26-25.88 182.64-24.75 184.74-23.25L184.74-23.25 182.74-20.25Q180.69-21.55 178.09-22.53 175.49-23.5 171.74-23.5L171.74-23.5Q169.09-23.5 167.79-22.65 166.49-21.8 166.49-20.5ZM218.74-15.75L218.74 0 211.74 0 211.74-15.75Q211.74-19.35 209.94-20.93 208.14-22.5 204.74-22.5L204.74-22.5 198.24-22.5 198.24 0 191.24 0 191.24-35 198.24-35 198.24-26 204.74-26Q211.89-26 215.31-23.43 218.74-20.85 218.74-15.75L218.74-15.75ZM263.48-0.5L263.48-1 256.98-1Q249.83-1 246.41-3.58 242.98-6.15 242.98-11.25L242.98-11.25 242.98-26 249.98-26 249.98-11.25Q249.98-7.65 251.78-6.08 253.58-4.5 256.98-4.5L256.98-4.5 263.48-4.5 263.48-26 270.48-26 270.48-0.5Q270.48 1.85 269.58 3.78 268.68 5.7 266.91 7.1 265.13 8.5 262.46 9.25 259.78 10 256.23 10L256.23 10Q255.03 10 253.66 9.83 252.28 9.65 250.88 9.28 249.48 8.9 248.16 8.33 246.83 7.75 245.73 7L245.73 7 247.73 4Q249.43 5.15 251.53 5.83 253.63 6.5 255.73 6.5L255.73 6.5Q259.48 6.5 261.48 4.8 263.48 3.1 263.48-0.5L263.48-0.5ZM291.48-2.25L291.48-2.25Q293.08-2.25 294.48-2.85 295.88-3.45 296.93-4.73 297.98-6 298.6-8.05 299.23-10.1 299.23-13L299.23-13Q299.23-15.9 298.6-17.95 297.98-20 296.93-21.28 295.88-22.55 294.48-23.15 293.08-23.75 291.48-23.75L291.48-23.75Q289.88-23.75 288.48-23.15 287.08-22.55 286.03-21.28 284.98-20 284.35-17.95 283.73-15.9 283.73-13L283.73-13Q283.73-10.1 284.35-8.05 284.98-6 286.03-4.73 287.08-3.45 288.48-2.85 289.88-2.25 291.48-2.25ZM291.48-27L291.48-27Q294.83-27 297.65-26.08 300.48-25.15 302.48-23.38 304.48-21.6 305.6-18.98 306.73-16.35 306.73-13L306.73-13Q306.73-9.6 305.6-7 304.48-4.4 302.48-2.63 300.48-0.85 297.65 0.08 294.83 1 291.48 1L291.48 1Q288.08 1 285.28 0.08 282.48-0.85 280.48-2.63 278.48-4.4 277.35-7 276.23-9.6 276.23-13L276.23-13Q276.23-16.35 277.35-18.98 278.48-21.6 280.48-23.38 282.48-25.15 285.28-26.08 288.08-27 291.48-27ZM312.48-10.25L312.48-26 319.48-26 319.48-10.25Q319.48-6.65 321.28-5.08 323.08-3.5 326.48-3.5L326.48-3.5 332.98-3.5 332.98-26 339.98-26 339.98 0 326.48 0Q319.33 0 315.9-2.58 312.48-5.15 312.48-10.25L312.48-10.25ZM366.72-26L366.72-22.5 360.72-22.5Q357.32-22.5 355.52-20.68 353.72-18.85 353.72-15.25L353.72-15.25 353.72 0 346.72 0 346.72-15.25Q346.72-20.35 349.95-23.18 353.17-26 359.22-26L359.22-26 366.72-26ZM401.47-22.5L395.22-22.5 395.22-3.5 401.47-3.5Q403.17-3.5 404.59-4.03 406.02-4.55 407.04-5.7 408.07-6.85 408.64-8.65 409.22-10.45 409.22-13L409.22-13Q409.22-15.55 408.64-17.35 408.07-19.15 407.04-20.3 406.02-21.45 404.59-21.98 403.17-22.5 401.47-22.5L401.47-22.5ZM388.22-26L401.47-26Q404.92-26 407.74-25.1 410.57-24.2 412.57-22.5 414.57-20.8 415.64-18.4 416.72-16 416.72-13L416.72-13Q416.72-10 415.64-7.6 414.57-5.2 412.57-3.5 410.57-1.8 407.74-0.9 404.92 0 401.47 0L401.47 0 395.22 0 395.22 9 388.22 9 388.22-26ZM436.47-2.25L436.47-2.25Q438.07-2.25 439.47-2.85 440.87-3.45 441.92-4.73 442.97-6 443.59-8.05 444.22-10.1 444.22-13L444.22-13Q444.22-15.9 443.59-17.95 442.97-20 441.92-21.28 440.87-22.55 439.47-23.15 438.07-23.75 436.47-23.75L436.47-23.75Q434.87-23.75 433.47-23.15 432.07-22.55 431.02-21.28 429.97-20 429.34-17.95 428.72-15.9 428.72-13L428.72-13Q428.72-10.1 429.34-8.05 429.97-6 431.02-4.73 432.07-3.45 433.47-2.85 434.87-2.25 436.47-2.25ZM436.47-27L436.47-27Q439.82-27 442.64-26.08 445.47-25.15 447.47-23.38 449.47-21.6 450.59-18.98 451.72-16.35 451.72-13L451.72-13Q451.72-9.6 450.59-7 449.47-4.4 447.47-2.63 445.47-0.85 442.64 0.08 439.82 1 436.47 1L436.47 1Q433.07 1 430.27 0.08 427.47-0.85 425.47-2.63 423.47-4.4 422.34-7 421.22-9.6 421.22-13L421.22-13Q421.22-16.35 422.34-18.98 423.47-21.6 425.47-23.38 427.47-25.15 430.27-26.08 433.07-27 436.47-27ZM458.71-9.5L458.71-22.5 453.96-22.5 453.96-26 458.71-26 458.71-34 465.71-34 465.71-26 473.46-26 473.46-22.5 465.71-22.5 465.71-9.5Q465.71-7.6 466.14-6.28 466.56-4.95 467.29-4.13 468.01-3.3 468.96-2.9 469.91-2.5 470.96-2.5L470.96-2.5Q472.46-2.5 473.86-2.98 475.26-3.45 476.21-4L476.21-4 477.71-0.75Q476.21 0 474.29 0.5 472.36 1 470.46 1L470.46 1Q464.81 1 461.76-1.8 458.71-4.6 458.71-9.5L458.71-9.5ZM495.21-2.5L495.21-2.5Q497.66-2.5 499.79-3.35 501.91-4.2 503.96-5.75L503.96-5.75 505.96-2.75Q505.01-1.9 503.74-1.2 502.46-0.5 500.99-0.03 499.51 0.45 497.91 0.73 496.31 1 494.71 1L494.71 1Q491.16 1 488.24 0.08 485.31-0.85 483.26-2.63 481.21-4.4 480.09-7 478.96-9.6 478.96-13L478.96-13Q478.96-16.35 480.04-18.98 481.11-21.6 483.04-23.38 484.96-25.15 487.61-26.08 490.26-27 493.46-27L493.46-27Q496.46-27 499.11-26.1 501.76-25.2 503.71-23.48 505.66-21.75 506.81-19.3 507.96-16.85 507.96-13.75L507.96-13.75 507.96-10.25 486.61-10.25Q487.21-6.1 489.49-4.3 491.76-2.5 495.21-2.5ZM493.46-23.75L493.46-23.75Q492.01-23.75 490.76-23.2 489.51-22.65 488.59-21.45 487.66-20.25 487.09-18.35 486.51-16.45 486.46-13.75L486.46-13.75 500.46-13.75Q500.46-16.35 499.86-18.25 499.26-20.15 498.29-21.38 497.31-22.6 496.04-23.18 494.76-23.75 493.46-23.75ZM541.21-15.75L541.21 0 534.21 0 534.21-15.75Q534.21-19.35 532.41-20.93 530.61-22.5 527.21-22.5L527.21-22.5 520.71-22.5 520.71 0 513.71 0 513.71-26 527.21-26Q534.36-26 537.78-23.43 541.21-20.85 541.21-15.75L541.21-15.75ZM549.2-9.5L549.2-22.5 544.45-22.5 544.45-26 549.2-26 549.2-34 556.2-34 556.2-26 563.95-26 563.95-22.5 556.2-22.5 556.2-9.5Q556.2-7.6 556.63-6.28 557.05-4.95 557.78-4.13 558.5-3.3 559.45-2.9 560.4-2.5 561.45-2.5L561.45-2.5Q562.95-2.5 564.35-2.98 565.75-3.45 566.7-4L566.7-4 568.2-0.75Q566.7 0 564.78 0.5 562.85 1 560.95 1L560.95 1Q555.3 1 552.25-1.8 549.2-4.6 549.2-9.5L549.2-9.5ZM579.45-25.5L579.45 0 572.45 0 572.45-25.5 579.45-25.5ZM579.7-32.25L579.7-32.25Q579.7-30.75 578.68-29.63 577.65-28.5 575.95-28.5L575.95-28.5Q574.25-28.5 573.23-29.63 572.2-30.75 572.2-32.25L572.2-32.25Q572.2-33.75 573.23-34.88 574.25-36 575.95-36L575.95-36Q577.6-36 578.65-34.88 579.7-33.75 579.7-32.25ZM592.45-8.25L592.45-8.25Q592.45-3.5 598.2-3.5L598.2-3.5 605.2-3.5 605.2-13 598.2-13Q592.45-13 592.45-8.25ZM598.2-16.5L605.2-16.5Q605.2-20.1 603.32-21.8 601.45-23.5 598.45-23.5L598.45-23.5Q596.2-23.5 594.05-22.83 591.9-22.15 590.2-21L590.2-21 588.45-24Q589.55-24.75 590.87-25.3 592.2-25.85 593.6-26.23 595-26.6 596.37-26.8 597.75-27 598.95-27L598.95-27Q602.15-27 604.6-26.25 607.05-25.5 608.75-24.1 610.45-22.7 611.32-20.78 612.2-18.85 612.2-16.5L612.2-16.5 612.2 0 598.2 0Q591.4 0 588.17-2.05 584.95-4.1 584.95-8.25L584.95-8.25Q584.95-12.4 588.17-14.45 591.4-16.5 598.2-16.5L598.2-16.5ZM625.95-35L625.95 0 618.95 0 618.95-35 625.95-35ZM674.44-23.5L679.44-4.75 679.94-4.75 685.69-26 692.94-26 685.94 0 675.44 0 670.69-18 670.19-18 665.44 0 654.94 0 647.94-26 655.19-26 660.94-4.75 661.44-4.75 666.44-23.5 674.44-23.5ZM704.69-25.5L704.69 0 697.69 0 697.69-25.5 704.69-25.5ZM704.94-32.25L704.94-32.25Q704.94-30.75 703.91-29.63 702.89-28.5 701.19-28.5L701.19-28.5Q699.49-28.5 698.46-29.63 697.44-30.75 697.44-32.25L697.44-32.25Q697.44-33.75 698.46-34.88 699.49-36 701.19-36L701.19-36Q702.84-36 703.89-34.88 704.94-33.75 704.94-32.25ZM714.19-9.5L714.19-22.5 709.44-22.5 709.44-26 714.19-26 714.19-34 721.19-34 721.19-26 728.94-26 728.94-22.5 721.19-22.5 721.19-9.5Q721.19-7.6 721.61-6.28 722.04-4.95 722.76-4.13 723.49-3.3 724.44-2.9 725.39-2.5 726.44-2.5L726.44-2.5Q727.94-2.5 729.34-2.98 730.74-3.45 731.69-4L731.69-4 733.19-0.75Q731.69 0 729.76 0.5 727.84 1 725.94 1L725.94 1Q720.29 1 717.24-1.8 714.19-4.6 714.19-9.5L714.19-9.5ZM764.68-15.75L764.68 0 757.68 0 757.68-15.75Q757.68-19.35 755.88-20.93 754.08-22.5 750.68-22.5L750.68-22.5 744.18-22.5 744.18 0 737.18 0 737.18-35 744.18-35 744.18-26 750.68-26Q757.83-26 761.26-23.43 764.68-20.85 764.68-15.75L764.68-15.75ZM803.93-2.5L803.93-2.5Q806.38-2.5 808.5-3.35 810.63-4.2 812.68-5.75L812.68-5.75 814.68-2.75Q813.73-1.9 812.45-1.2 811.18-0.5 809.7-0.03 808.23 0.45 806.63 0.73 805.03 1 803.43 1L803.43 1Q799.88 1 796.95 0.08 794.03-0.85 791.98-2.63 789.93-4.4 788.8-7 787.68-9.6 787.68-13L787.68-13Q787.68-16.35 788.75-18.98 789.83-21.6 791.75-23.38 793.68-25.15 796.33-26.08 798.98-27 802.18-27L802.18-27Q805.18-27 807.83-26.1 810.48-25.2 812.43-23.48 814.38-21.75 815.53-19.3 816.68-16.85 816.68-13.75L816.68-13.75 816.68-10.25 795.33-10.25Q795.93-6.1 798.2-4.3 800.48-2.5 803.93-2.5ZM802.18-23.75L802.18-23.75Q800.73-23.75 799.48-23.2 798.23-22.65 797.3-21.45 796.38-20.25 795.8-18.35 795.23-16.45 795.18-13.75L795.18-13.75 809.18-13.75Q809.18-16.35 808.58-18.25 807.98-20.15 807-21.38 806.03-22.6 804.75-23.18 803.48-23.75 802.18-23.75ZM836.43-27L836.43-27Q838.03-27 839.63-26.73 841.23-26.45 842.7-25.98 844.18-25.5 845.45-24.8 846.73-24.1 847.68-23.25L847.68-23.25 845.68-20.25Q843.63-21.8 841.5-22.65 839.38-23.5 836.93-23.5L836.93-23.5Q835.13-23.5 833.63-22.93 832.13-22.35 831.03-21.08 829.93-19.8 829.3-17.8 828.68-15.8 828.68-13L828.68-13Q828.68-10.2 829.3-8.2 829.93-6.2 831.08-4.93 832.23-3.65 833.85-3.08 835.48-2.5 837.43-2.5L837.43-2.5Q839.88-2.5 842-3.35 844.13-4.2 846.18-5.75L846.18-5.75 848.18-2.75Q847.23-1.9 845.95-1.2 844.68-0.5 843.2-0.03 841.73 0.45 840.13 0.73 838.53 1 836.93 1L836.93 1Q833.38 1 830.45 0.08 827.53-0.85 825.48-2.63 823.43-4.4 822.3-7 821.18-9.6 821.18-13L821.18-13Q821.18-16.35 822.3-18.98 823.43-21.6 825.43-23.38 827.43-25.15 830.23-26.08 833.03-27 836.43-27ZM865.67-2.25L865.67-2.25Q867.27-2.25 868.67-2.85 870.07-3.45 871.12-4.73 872.17-6 872.8-8.05 873.42-10.1 873.42-13L873.42-13Q873.42-15.9 872.8-17.95 872.17-20 871.12-21.28 870.07-22.55 868.67-23.15 867.27-23.75 865.67-23.75L865.67-23.75Q864.07-23.75 862.67-23.15 861.27-22.55 860.22-21.28 859.17-20 858.55-17.95 857.92-15.9 857.92-13L857.92-13Q857.92-10.1 858.55-8.05 859.17-6 860.22-4.73 861.27-3.45 862.67-2.85 864.07-2.25 865.67-2.25ZM865.67-27L865.67-27Q869.02-27 871.85-26.08 874.67-25.15 876.67-23.38 878.67-21.6 879.8-18.98 880.92-16.35 880.92-13L880.92-13Q880.92-9.6 879.8-7 878.67-4.4 876.67-2.63 874.67-0.85 871.85 0.08 869.02 1 865.67 1L865.67 1Q862.27 1 859.47 0.08 856.67-0.85 854.67-2.63 852.67-4.4 851.55-7 850.42-9.6 850.42-13L850.42-13Q850.42-16.35 851.55-18.98 852.67-21.6 854.67-23.38 856.67-25.15 859.47-26.08 862.27-27 865.67-27ZM886.67 0L886.67-26 912.67-26Q919.82-26 923.25-23.43 926.67-20.85 926.67-15.75L926.67-15.75 926.67 0 919.67 0 919.67-15.75Q919.67-19.35 917.87-20.93 916.07-22.5 912.67-22.5L912.67-22.5 910.17-22.5 910.17 0 903.17 0 903.17-22.5 893.67-22.5 893.67 0 886.67 0ZM933.42 0L933.42-26 959.42-26Q966.57-26 969.99-23.43 973.42-20.85 973.42-15.75L973.42-15.75 973.42 0 966.42 0 966.42-15.75Q966.42-19.35 964.62-20.93 962.82-22.5 959.42-22.5L959.42-22.5 956.92-22.5 956.92 0 949.92 0 949.92-22.5 940.42-22.5 940.42 0 933.42 0ZM995.17-2.5L995.17-2.5Q997.62-2.5 999.74-3.35 1001.87-4.2 1003.92-5.75L1003.92-5.75 1005.92-2.75Q1004.97-1.9 1003.69-1.2 1002.42-0.5 1000.94-0.03 999.47 0.45 997.87 0.73 996.27 1 994.67 1L994.67 1Q991.12 1 988.19 0.08 985.27-0.85 983.22-2.63 981.17-4.4 980.04-7 978.92-9.6 978.92-13L978.92-13Q978.92-16.35 979.99-18.98 981.07-21.6 982.99-23.38 984.92-25.15 987.57-26.08 990.22-27 993.42-27L993.42-27Q996.42-27 999.07-26.1 1001.72-25.2 1003.67-23.48 1005.62-21.75 1006.77-19.3 1007.92-16.85 1007.92-13.75L1007.92-13.75 1007.92-10.25 986.57-10.25Q987.17-6.1 989.44-4.3 991.72-2.5 995.17-2.5ZM993.42-23.75L993.42-23.75Q991.97-23.75 990.72-23.2 989.47-22.65 988.54-21.45 987.62-20.25 987.04-18.35 986.47-16.45 986.42-13.75L986.42-13.75 1000.42-13.75Q1000.42-16.35 999.82-18.25 999.22-20.15 998.24-21.38 997.27-22.6 995.99-23.18 994.72-23.75 993.42-23.75ZM1033.41-26L1033.41-22.5 1027.41-22.5Q1024.01-22.5 1022.21-20.68 1020.41-18.85 1020.41-15.25L1020.41-15.25 1020.41 0 1013.41 0 1013.41-15.25Q1013.41-20.35 1016.64-23.18 1019.86-26 1025.91-26L1025.91-26 1033.41-26ZM1049.91-27L1049.91-27Q1051.51-27 1053.11-26.73 1054.71-26.45 1056.19-25.98 1057.66-25.5 1058.94-24.8 1060.21-24.1 1061.16-23.25L1061.16-23.25 1059.16-20.25Q1057.11-21.8 1054.99-22.65 1052.86-23.5 1050.41-23.5L1050.41-23.5Q1048.61-23.5 1047.11-22.93 1045.61-22.35 1044.51-21.08 1043.41-19.8 1042.79-17.8 1042.16-15.8 1042.16-13L1042.16-13Q1042.16-10.2 1042.79-8.2 1043.41-6.2 1044.56-4.93 1045.71-3.65 1047.34-3.08 1048.96-2.5 1050.91-2.5L1050.91-2.5Q1053.36-2.5 1055.49-3.35 1057.61-4.2 1059.66-5.75L1059.66-5.75 1061.66-2.75Q1060.71-1.9 1059.44-1.2 1058.16-0.5 1056.69-0.03 1055.21 0.45 1053.61 0.73 1052.01 1 1050.41 1L1050.41 1Q1046.86 1 1043.94 0.08 1041.01-0.85 1038.96-2.63 1036.91-4.4 1035.79-7 1034.66-9.6 1034.66-13L1034.66-13Q1034.66-16.35 1035.79-18.98 1036.91-21.6 1038.91-23.38 1040.91-25.15 1043.71-26.08 1046.51-27 1049.91-27ZM1080.16-2.5L1080.16-2.5Q1082.61-2.5 1084.73-3.35 1086.86-4.2 1088.91-5.75L1088.91-5.75 1090.91-2.75Q1089.96-1.9 1088.68-1.2 1087.41-0.5 1085.93-0.03 1084.46 0.45 1082.86 0.73 1081.26 1 1079.66 1L1079.66 1Q1076.11 1 1073.18 0.08 1070.26-0.85 1068.21-2.63 1066.16-4.4 1065.03-7 1063.91-9.6 1063.91-13L1063.91-13Q1063.91-16.35 1064.98-18.98 1066.06-21.6 1067.98-23.38 1069.91-25.15 1072.56-26.08 1075.21-27 1078.41-27L1078.41-27Q1081.41-27 1084.06-26.1 1086.71-25.2 1088.66-23.48 1090.61-21.75 1091.76-19.3 1092.91-16.85 1092.91-13.75L1092.91-13.75 1092.91-10.25 1071.56-10.25Q1072.16-6.1 1074.43-4.3 1076.71-2.5 1080.16-2.5ZM1078.41-23.75L1078.41-23.75Q1076.96-23.75 1075.71-23.2 1074.46-22.65 1073.53-21.45 1072.61-20.25 1072.03-18.35 1071.46-16.45 1071.41-13.75L1071.41-13.75 1085.41-13.75Q1085.41-16.35 1084.81-18.25 1084.21-20.15 1083.23-21.38 1082.26-22.6 1080.98-23.18 1079.71-23.75 1078.41-23.75Z" opacity="1" transform="matrix(1,0,0,1,0,0)" fill="#77d4fc" class="slogan-text-1" data-fill-palette-color="secondary" id="text-1"></path></svg></g></svg></g></svg></g></svg></g><g></g></svg></g></svg></g></svg></g></svg></g><defs></defs></svg><rect width="320" height="360" fill="none" stroke="none" visibility="hidden"></rect></g></svg></g></svg>